<?xml version="1.0" encoding="UTF-8" standalone="no"?>
<svg width="170px" height="42px" viewBox="0 0 170 42" version="1.1" xmlns="http://www.w3.org/2000/svg" xmlns:xlink="http://www.w3.org/1999/xlink">
    <defs></defs>
    <g stroke="none" stroke-width="1" fill="none" fill-rule="evenodd">
        <g fill="#FFFFFF">
            <g>
                <g>
                    <path d="M30.6768,25.5612 C30.6768,27.3252 31.1787,28.0287 32.4912,28.0287 C35.4165,28.0287 37.2792,24.3012 37.2792,18.102 C37.2792,8.6268 30.3744,4.0908 21.7539,4.0908 C12.8856,4.0908 4.8195,10.038 4.8195,21.2772 C4.8195,32.0124 11.8755,37.8588 22.7115,37.8588 C26.3907,37.8588 28.8603,37.4556 32.6382,36.1956 L33.4488,39.5703 C29.7192,40.782 25.7334,41.1327 22.6611,41.1327 C8.4483,41.1327 0.8358,33.3207 0.8358,21.2751 C0.8358,9.1287 9.6579,0.8631 21.8043,0.8631 C34.4547,0.8631 41.1558,8.4231 41.1558,17.6967 C41.1558,25.5591 38.6883,31.5567 30.9267,31.5567 C27.3966,31.5567 25.0803,30.1455 24.7779,27.0186 C23.8707,30.4962 21.4515,31.5567 18.1734,31.5567 C13.7886,31.5567 10.1094,28.1778 10.1094,21.3759 C10.1094,14.5215 13.3371,10.2879 19.1331,10.2879 C22.2075,10.2879 24.1227,11.4975 24.9753,13.4127 L26.439,10.7415 L30.6726,10.7415 L30.6726,25.5612 L30.6768,25.5612 L30.6768,25.5612 Z M24.4797,18.9084 C24.4797,16.1385 22.4112,14.9772 20.6976,14.9772 C18.8328,14.9772 16.7685,16.4871 16.7685,20.9244 C16.7685,24.4524 18.3309,26.418 20.6976,26.418 C22.3608,26.418 24.4797,25.3596 24.4797,22.4364 L24.4797,18.9084 L24.4797,18.9084 Z"></path>
                </g>
                <g transform="translate(128.000000, 0.000000)">
                    <path d="M21,0 C9.4014375,0 0,9.4014375 0,21 C0,32.5985625 9.4014375,42 21,42 C32.5985625,42 42,32.5985625 42,21 C42,9.4014375 32.5985625,0 21,0 L21,0 Z M33.471375,33.471375 C31.8504375,35.0923125 29.964375,36.364125 27.864375,37.2526875 C27.3315,37.4784375 26.7894375,37.676625 26.2395,37.84725 L26.2395,34.699875 C26.2395,33.046125 25.6725,31.828125 24.5371875,31.0498125 C25.2485625,30.9815625 25.900875,30.88575 26.4954375,30.762375 C27.09,30.639 27.7186875,30.4618125 28.3828125,30.2295 C29.0469375,29.9971875 29.6401875,29.72025 30.1665,29.3986875 C30.6928125,29.077125 31.198125,28.65975 31.68375,28.147875 C32.169375,27.636 32.57625,27.0545625 32.904375,26.404875 C33.2325,25.7551875 33.492375,24.9755625 33.684,24.0673125 C33.875625,23.1590625 33.9714375,22.1563125 33.9714375,21.063 C33.9714375,18.9433125 33.2810625,17.138625 31.9003125,15.6489375 C32.529,14.0083125 32.46075,12.224625 31.6955625,10.2965625 L31.182375,10.234875 C30.8266875,10.1941875 30.1875,10.3438125 29.2648125,10.686375 C28.342125,11.0289375 27.3065625,11.589375 26.158125,12.3676875 C24.530625,11.9161875 22.84275,11.6904375 21.0931875,11.6904375 C19.3291875,11.6904375 17.647875,11.9161875 16.0479375,12.3676875 C15.3234375,11.8755 14.637,11.468625 13.9873125,11.1470625 C13.337625,10.8255 12.817875,10.607625 12.4280625,10.4908125 C12.03825,10.374 11.676,10.303125 11.3413125,10.2755625 C11.006625,10.248 10.791375,10.2414375 10.6955625,10.2545625 C10.59975,10.2676875 10.5315,10.282125 10.4908125,10.29525 C9.725625,12.2364375 9.657375,14.0214375 10.2860625,15.647625 C8.9053125,17.1373125 8.2149375,18.942 8.2149375,21.0616875 C8.2149375,22.155 8.31075,23.1564375 8.502375,24.066 C8.694,24.9755625 8.953875,25.753875 9.282,26.4035625 C9.610125,27.05325 10.017,27.6346875 10.502625,28.1465625 C10.98825,28.6584375 11.4935625,29.0758125 12.019875,29.397375 C12.5461875,29.7189375 13.14075,29.995875 13.8035625,30.2281875 C14.466375,30.4605 15.0950625,30.639 15.6909375,30.7610625 C16.2868125,30.883125 16.9378125,30.98025 17.6491875,31.0485 C16.5283125,31.8136875 15.967875,33.030375 15.967875,34.6985625 L15.967875,37.907625 C15.348375,37.723875 14.7380625,37.506 14.13825,37.251375 C12.03825,36.3628125 10.1521875,35.091 8.53125,33.4700625 C6.9103125,31.849125 5.6385,29.9630625 4.7499375,27.8630625 C3.8311875,25.690875 3.36525,23.3821875 3.36525,20.9986875 C3.36525,18.6151875 3.8311875,16.3065 4.7499375,14.1343125 C5.6385,12.0343125 6.9103125,10.14825 8.53125,8.5273125 C10.1521875,6.906375 12.03825,5.6345625 14.13825,4.746 C16.3104375,3.82725 18.6204375,3.3613125 21.002625,3.3613125 C23.3848125,3.3613125 25.6948125,3.82725 27.867,4.746 C29.967,5.6345625 31.8530625,6.906375 33.474,8.5273125 C35.0949375,10.14825 36.36675,12.0343125 37.2553125,14.1343125 C38.1740625,16.3065 38.64,18.6165 38.64,20.9986875 C38.64,23.380875 38.1740625,25.690875 37.2553125,27.8630625 C36.36675,29.9630625 35.0949375,31.849125 33.474,33.4700625 L33.471375,33.471375 Z"></path>
                </g>
                <g transform="translate(42.000000, 0.000000)">
                    <g>
                        <path d="M15,11.9774859 L23.3025,11.9774859 L23.3025,16.2250019 L23.421,16.2250019 C24.576,14.1573884 27.4035,11.9774859 31.617,11.9774859 C40.38,11.9774859 42,17.4227505 42,24.504439 L42,38.9268293 L33.3465,38.9268293 L33.3465,26.140863 C33.3465,23.0910957 33.2835,19.168469 28.845,19.168469 C24.3375,19.168469 23.6505,22.489227 23.6505,25.9192795 L23.6505,38.9268293 L15,38.9268293 L15,11.9774859 L15,11.9774859 Z"></path>
                        <path d="M0,11.9774859 L9,11.9774859 L9,38.9268293 L0,38.9268293 L0,11.9774859 L0,11.9774859 Z"></path>
                        <path d="M9,4.49155722 C9,6.972394 6.9855,8.98311445 4.5,8.98311445 C2.0145,8.98311445 0,6.972394 0,4.49155722 C0,2.01072045 2.0145,0 4.5,0 C6.9855,0 9,2.01072045 9,4.49155722 L9,4.49155722 Z"></path>
                    </g>
                </g>
                <g transform="translate(85.000000, 0.000000)">
                    <path d="M42,4.32572727 C40.4679545,5.00195455 38.820062,5.45925 37.0914669,5.66522727 C38.8552066,4.61202273 40.2102273,2.94606818 40.8493388,0.960136364 C39.1975413,1.93431818 37.368719,2.64293182 35.4227479,3.02379545 C33.8633678,1.37079545 31.6427479,0.338318182 29.1852273,0.338318182 C24.4654339,0.338318182 20.639876,4.14565909 20.639876,8.84297727 C20.639876,9.51013636 20.7153719,10.1591591 20.861157,10.7809773 C13.7593388,10.4260227 7.46194215,7.03970455 3.24719008,1.89415909 C2.5117562,3.15075 2.09002066,4.61072727 2.09002066,6.17045455 C2.09002066,9.1215 3.59863636,11.7240682 5.89214876,13.2501136 C4.49157025,13.2060682 3.17429752,12.8239091 2.02103306,12.1865455 C2.0197314,12.2215227 2.0197314,12.2577955 2.0197314,12.2940682 C2.0197314,16.4149091 4.9653719,19.85175 8.87423554,20.6329091 C8.15702479,20.8272273 7.40206612,20.9308636 6.62237603,20.9308636 C6.07177686,20.9308636 5.53679752,20.87775 5.01483471,20.778 C6.10171488,24.1565455 9.25822314,26.6153182 12.9978719,26.6839773 C10.0730579,28.9652727 6.38807851,30.3242045 2.38419421,30.3242045 C1.69431818,30.3242045 1.01485537,30.2840455 0.345805785,30.2050227 C4.12710744,32.6184545 8.61911157,34.0266136 13.4456405,34.0266136 C29.1644008,34.0266136 37.7592149,21.0668864 37.7592149,9.82752273 C37.7592149,9.45831818 37.751405,9.09170455 37.7344835,8.72768182 C39.4045041,7.52809091 40.8532438,6.03054545 41.9986983,4.32572727 L42,4.32572727 Z"></path>
                </g>
            </g>
        </g>
    </g>
</svg>