<?xml version="1.0" encoding="utf-8"?>
<!-- Generator: Adobe Illustrator 15.0.0, SVG Export Plug-In  -->
<!DOCTYPE svg PUBLIC "-//W3C//DTD SVG 1.1//EN" "http://www.w3.org/Graphics/SVG/1.1/DTD/svg11.dtd" [
	<!ENTITY ns_flows "http://ns.adobe.com/Flows/1.0/">
]>
<svg version="1.1"
	 xmlns="http://www.w3.org/2000/svg" xmlns:xlink="http://www.w3.org/1999/xlink" xmlns:a="http://ns.adobe.com/AdobeSVGViewerExtensions/3.0/"
	 x="0px" y="0px" width="170px" height="43px" viewBox="-0.336 -0.5 170 43"
	 overflow="visible" enable-background="new -0.336 -0.5 170 43" xml:space="preserve">
<defs>
</defs>
<path fill="#FFFFFF" d="M29.841,25.561c0,1.765,0.502,2.469,1.814,2.469c2.925,0,4.788-3.729,4.788-9.927
	c0-9.475-6.905-14.011-15.525-14.011c-8.868,0-16.935,5.947-16.935,17.187c0,10.734,7.056,16.582,17.892,16.582
	c3.679,0,6.149-0.404,9.927-1.664l0.811,3.375c-3.729,1.212-7.715,1.562-10.788,1.562C7.612,41.133,0,33.32,0,21.275
	C0,9.129,8.822,0.863,20.968,0.863c12.65,0,19.352,7.56,19.352,16.833c0,7.862-2.467,13.86-10.229,13.86
	c-3.53,0-5.847-1.411-6.149-4.538c-0.907,3.478-3.326,4.538-6.604,4.538c-4.385,0-8.064-3.379-8.064-10.181
	c0-6.854,3.228-11.088,9.024-11.088c3.074,0,4.989,1.209,5.842,3.125l1.464-2.671h4.233v14.819H29.841L29.841,25.561z
	 M23.644,18.908c0-2.77-2.068-3.931-3.782-3.931c-1.865,0-3.929,1.51-3.929,5.947c0,3.528,1.562,5.494,3.929,5.494
	c1.663,0,3.782-1.059,3.782-3.981V18.908L23.644,18.908z"/>
<path fill="#FFFFFF" d="M148.164,0c-11.599,0-21,9.401-21,21s9.401,21,21,21s21-9.401,21-21S159.763,0,148.164,0L148.164,0z
	 M160.635,33.471c-1.62,1.621-3.506,2.894-5.606,3.782c-0.532,0.226-1.075,0.424-1.625,0.595v-3.148
	c0-1.653-0.567-2.871-1.702-3.649c0.711-0.068,1.363-0.164,1.959-0.288c0.594-0.123,1.223-0.3,1.887-0.532s1.258-0.509,1.783-0.831
	c0.527-0.321,1.032-0.738,1.518-1.25c0.486-0.513,0.893-1.094,1.221-1.744c0.328-0.648,0.588-1.429,0.779-2.337
	s0.288-1.911,0.288-3.004c0-2.12-0.69-3.924-2.071-5.414c0.629-1.641,0.561-3.424-0.205-5.353l-0.513-0.062
	c-0.356-0.041-0.995,0.109-1.918,0.452c-0.923,0.342-1.958,0.903-3.106,1.681c-1.627-0.452-3.315-0.677-5.064-0.677
	c-1.765,0-3.445,0.226-5.046,0.677c-0.725-0.492-1.411-0.899-2.061-1.221c-0.649-0.321-1.169-0.54-1.56-0.656
	c-0.39-0.117-0.752-0.188-1.086-0.215c-0.335-0.027-0.551-0.034-0.646-0.021s-0.164,0.028-0.205,0.041
	c-0.765,1.941-0.833,3.726-0.204,5.352c-1.381,1.49-2.071,3.294-2.071,5.414c0,1.094,0.096,2.095,0.287,3.005
	c0.191,0.909,0.452,1.688,0.78,2.337s0.735,1.231,1.22,1.743c0.486,0.512,0.992,0.93,1.518,1.251
	c0.527,0.321,1.121,0.599,1.784,0.831s1.292,0.41,1.888,0.533c0.596,0.121,1.246,0.219,1.958,0.287
	c-1.121,0.765-1.682,1.981-1.682,3.65v3.209c-0.62-0.185-1.229-0.402-1.829-0.656c-2.101-0.889-3.986-2.161-5.607-3.781
	c-1.621-1.621-2.893-3.508-3.781-5.607c-0.919-2.172-1.385-4.48-1.385-6.865c0-2.383,0.466-4.692,1.385-6.864
	c0.889-2.1,2.16-3.986,3.781-5.607s3.507-2.893,5.607-3.781c2.172-0.919,4.482-1.385,6.863-1.385c2.383,0,4.693,0.466,6.865,1.385
	c2.1,0.889,3.986,2.16,5.607,3.781c1.62,1.621,2.893,3.507,3.781,5.607c0.918,2.172,1.385,4.482,1.385,6.864
	c0,2.382-0.467,4.693-1.385,6.865c-0.889,2.1-2.161,3.986-3.781,5.607H160.635z"/>
<path fill="#FFFFFF" d="M56.164,11.978h8.303v4.248h0.118c1.155-2.068,3.982-4.248,8.196-4.248c8.763,0,10.383,5.445,10.383,12.526
	v14.423h-8.653V26.141c0-3.05-0.063-6.972-4.501-6.972c-4.508,0-5.195,3.321-5.195,6.751v13.007h-8.65V11.978L56.164,11.978z"/>
<path fill="#FFFFFF" d="M41.164,11.978h9v26.949h-9V11.978L41.164,11.978z"/>
<path fill="#FFFFFF" d="M50.164,4.492c0,2.481-2.015,4.491-4.5,4.491s-4.5-2.01-4.5-4.491S43.179,0,45.664,0
	S50.164,2.011,50.164,4.492L50.164,4.492z"/>
<path fill="#FFFFFF" d="M126.164,4.326c-1.532,0.676-3.18,1.133-4.908,1.339c1.764-1.053,3.119-2.719,3.758-4.705
	c-1.652,0.975-3.48,1.683-5.427,2.064c-1.56-1.653-3.78-2.686-6.237-2.686c-4.721,0-8.546,3.807-8.546,8.504
	c0,0.667,0.075,1.316,0.222,1.938c-7.102-0.355-13.399-3.742-17.614-8.887c-0.735,1.257-1.157,2.717-1.157,4.276
	c0,2.951,1.509,5.554,3.803,7.08c-1.4-0.044-2.719-0.426-3.871-1.063c-0.002,0.035-0.002,0.071-0.002,0.107
	c0,4.121,2.945,7.558,6.854,8.339c-0.717,0.194-1.472,0.298-2.251,0.298c-0.551,0-1.086-0.053-1.608-0.153
	c1.087,3.378,4.243,5.837,7.983,5.906c-2.925,2.281-6.609,3.641-10.613,3.641c-0.69,0-1.37-0.04-2.039-0.119
	c3.781,2.414,8.273,3.821,13.1,3.821c15.719,0,24.314-12.959,24.314-24.199c0-0.369-0.008-0.736-0.025-1.1
	c1.67-1.199,3.119-2.697,4.264-4.402H126.164z"/>
</svg>
