<?xml version="1.0" encoding="UTF-8" standalone="no"?>
<svg width="42px" height="42px" viewBox="0 0 42 42" version="1.1" xmlns="http://www.w3.org/2000/svg" xmlns:xlink="http://www.w3.org/1999/xlink">
    <defs></defs>
    <g stroke="none" stroke-width="1" fill="none" fill-rule="evenodd">
        <g fill="#FFFFFF">
            <g>
                <path d="M30.6768,25.5612 C30.6768,27.3252 31.1787,28.0287 32.4912,28.0287 C35.4165,28.0287 37.2792,24.3012 37.2792,18.102 C37.2792,8.6268 30.3744,4.0908 21.7539,4.0908 C12.8856,4.0908 4.8195,10.038 4.8195,21.2772 C4.8195,32.0124 11.8755,37.8588 22.7115,37.8588 C26.3907,37.8588 28.8603,37.4556 32.6382,36.1956 L33.4488,39.5703 C29.7192,40.782 25.7334,41.1327 22.6611,41.1327 C8.4483,41.1327 0.8358,33.3207 0.8358,21.2751 C0.8358,9.1287 9.6579,0.8631 21.8043,0.8631 C34.4547,0.8631 41.1558,8.4231 41.1558,17.6967 C41.1558,25.5591 38.6883,31.5567 30.9267,31.5567 C27.3966,31.5567 25.0803,30.1455 24.7779,27.0186 C23.8707,30.4962 21.4515,31.5567 18.1734,31.5567 C13.7886,31.5567 10.1094,28.1778 10.1094,21.3759 C10.1094,14.5215 13.3371,10.2879 19.1331,10.2879 C22.2075,10.2879 24.1227,11.4975 24.9753,13.4127 L26.439,10.7415 L30.6726,10.7415 L30.6726,25.5612 L30.6768,25.5612 L30.6768,25.5612 Z M24.4797,18.9084 C24.4797,16.1385 22.4112,14.9772 20.6976,14.9772 C18.8328,14.9772 16.7685,16.4871 16.7685,20.9244 C16.7685,24.4524 18.3309,26.418 20.6976,26.418 C22.3608,26.418 24.4797,25.3596 24.4797,22.4364 L24.4797,18.9084 L24.4797,18.9084 Z"></path>
            </g>
        </g>
    </g>
</svg>