<?xml version="1.0" encoding="UTF-8" standalone="no"?>
<svg width="42px" height="42px" viewBox="0 0 42 42" version="1.1" xmlns="http://www.w3.org/2000/svg" xmlns:xlink="http://www.w3.org/1999/xlink">
    <defs></defs>
    <g stroke="none" stroke-width="1" fill="none" fill-rule="evenodd">
        <g transform="translate(-128.000000, 0.000000)" fill="#FFFFFF">
            <g transform="translate(128.000000, 0.000000)">
                <path d="M21,0 C9.4014375,0 0,9.4014375 0,21 C0,32.5985625 9.4014375,42 21,42 C32.5985625,42 42,32.5985625 42,21 C42,9.4014375 32.5985625,0 21,0 L21,0 Z M33.471375,33.471375 C31.8504375,35.0923125 29.964375,36.364125 27.864375,37.2526875 C27.3315,37.4784375 26.7894375,37.676625 26.2395,37.84725 L26.2395,34.699875 C26.2395,33.046125 25.6725,31.828125 24.5371875,31.0498125 C25.2485625,30.9815625 25.900875,30.88575 26.4954375,30.762375 C27.09,30.639 27.7186875,30.4618125 28.3828125,30.2295 C29.0469375,29.9971875 29.6401875,29.72025 30.1665,29.3986875 C30.6928125,29.077125 31.198125,28.65975 31.68375,28.147875 C32.169375,27.636 32.57625,27.0545625 32.904375,26.404875 C33.2325,25.7551875 33.492375,24.9755625 33.684,24.0673125 C33.875625,23.1590625 33.9714375,22.1563125 33.9714375,21.063 C33.9714375,18.9433125 33.2810625,17.138625 31.9003125,15.6489375 C32.529,14.0083125 32.46075,12.224625 31.6955625,10.2965625 L31.182375,10.234875 C30.8266875,10.1941875 30.1875,10.3438125 29.2648125,10.686375 C28.342125,11.0289375 27.3065625,11.589375 26.158125,12.3676875 C24.530625,11.9161875 22.84275,11.6904375 21.0931875,11.6904375 C19.3291875,11.6904375 17.647875,11.9161875 16.0479375,12.3676875 C15.3234375,11.8755 14.637,11.468625 13.9873125,11.1470625 C13.337625,10.8255 12.817875,10.607625 12.4280625,10.4908125 C12.03825,10.374 11.676,10.303125 11.3413125,10.2755625 C11.006625,10.248 10.791375,10.2414375 10.6955625,10.2545625 C10.59975,10.2676875 10.5315,10.282125 10.4908125,10.29525 C9.725625,12.2364375 9.657375,14.0214375 10.2860625,15.647625 C8.9053125,17.1373125 8.2149375,18.942 8.2149375,21.0616875 C8.2149375,22.155 8.31075,23.1564375 8.502375,24.066 C8.694,24.9755625 8.953875,25.753875 9.282,26.4035625 C9.610125,27.05325 10.017,27.6346875 10.502625,28.1465625 C10.98825,28.6584375 11.4935625,29.0758125 12.019875,29.397375 C12.5461875,29.7189375 13.14075,29.995875 13.8035625,30.2281875 C14.466375,30.4605 15.0950625,30.639 15.6909375,30.7610625 C16.2868125,30.883125 16.9378125,30.98025 17.6491875,31.0485 C16.5283125,31.8136875 15.967875,33.030375 15.967875,34.6985625 L15.967875,37.907625 C15.348375,37.723875 14.7380625,37.506 14.13825,37.251375 C12.03825,36.3628125 10.1521875,35.091 8.53125,33.4700625 C6.9103125,31.849125 5.6385,29.9630625 4.7499375,27.8630625 C3.8311875,25.690875 3.36525,23.3821875 3.36525,20.9986875 C3.36525,18.6151875 3.8311875,16.3065 4.7499375,14.1343125 C5.6385,12.0343125 6.9103125,10.14825 8.53125,8.5273125 C10.1521875,6.906375 12.03825,5.6345625 14.13825,4.746 C16.3104375,3.82725 18.6204375,3.3613125 21.002625,3.3613125 C23.3848125,3.3613125 25.6948125,3.82725 27.867,4.746 C29.967,5.6345625 31.8530625,6.906375 33.474,8.5273125 C35.0949375,10.14825 36.36675,12.0343125 37.2553125,14.1343125 C38.1740625,16.3065 38.64,18.6165 38.64,20.9986875 C38.64,23.380875 38.1740625,25.690875 37.2553125,27.8630625 C36.36675,29.9630625 35.0949375,31.849125 33.474,33.4700625 L33.471375,33.471375 Z"></path>
            </g>
        </g>
    </g>
</svg>