<?xml version="1.0" encoding="UTF-8" standalone="no"?>
<svg width="42px" height="39px" viewBox="0 0 42 39" version="1.1" xmlns="http://www.w3.org/2000/svg" xmlns:xlink="http://www.w3.org/1999/xlink">
    <defs></defs>
    <g stroke="none" stroke-width="1" fill="none" fill-rule="evenodd">
        <g transform="translate(-42.000000, 0.000000)" fill="#FFFFFF">
            <g transform="translate(42.000000, 0.000000)">
                <g>
                    <path d="M15,11.9774859 L23.3025,11.9774859 L23.3025,16.2250019 L23.421,16.2250019 C24.576,14.1573884 27.4035,11.9774859 31.617,11.9774859 C40.38,11.9774859 42,17.4227505 42,24.504439 L42,38.9268293 L33.3465,38.9268293 L33.3465,26.140863 C33.3465,23.0910957 33.2835,19.168469 28.845,19.168469 C24.3375,19.168469 23.6505,22.489227 23.6505,25.9192795 L23.6505,38.9268293 L15,38.9268293 L15,11.9774859 L15,11.9774859 Z"></path>
                    <path d="M0,11.9774859 L9,11.9774859 L9,38.9268293 L0,38.9268293 L0,11.9774859 L0,11.9774859 Z"></path>
                    <path d="M9,4.49155722 C9,6.972394 6.9855,8.98311445 4.5,8.98311445 C2.0145,8.98311445 0,6.972394 0,4.49155722 C0,2.01072045 2.0145,0 4.5,0 C6.9855,0 9,2.01072045 9,4.49155722 L9,4.49155722 Z"></path>
                </g>
            </g>
        </g>
    </g>
</svg>