<?xml version="1.0" encoding="UTF-8" standalone="no"?>
<svg width="42px" height="35px" viewBox="0 0 42 35" version="1.1" xmlns="http://www.w3.org/2000/svg" xmlns:xlink="http://www.w3.org/1999/xlink">
    <defs></defs>
    <g stroke="none" stroke-width="1" fill="none" fill-rule="evenodd">
        <g transform="translate(-85.000000, 0.000000)" fill="#FFFFFF">
            <g transform="translate(85.000000, 0.000000)">
                <path d="M42,4.32572727 C40.4679545,5.00195455 38.820062,5.45925 37.0914669,5.66522727 C38.8552066,4.61202273 40.2102273,2.94606818 40.8493388,0.960136364 C39.1975413,1.93431818 37.368719,2.64293182 35.4227479,3.02379545 C33.8633678,1.37079545 31.6427479,0.338318182 29.1852273,0.338318182 C24.4654339,0.338318182 20.639876,4.14565909 20.639876,8.84297727 C20.639876,9.51013636 20.7153719,10.1591591 20.861157,10.7809773 C13.7593388,10.4260227 7.46194215,7.03970455 3.24719008,1.89415909 C2.5117562,3.15075 2.09002066,4.61072727 2.09002066,6.17045455 C2.09002066,9.1215 3.59863636,11.7240682 5.89214876,13.2501136 C4.49157025,13.2060682 3.17429752,12.8239091 2.02103306,12.1865455 C2.0197314,12.2215227 2.0197314,12.2577955 2.0197314,12.2940682 C2.0197314,16.4149091 4.9653719,19.85175 8.87423554,20.6329091 C8.15702479,20.8272273 7.40206612,20.9308636 6.62237603,20.9308636 C6.07177686,20.9308636 5.53679752,20.87775 5.01483471,20.778 C6.10171488,24.1565455 9.25822314,26.6153182 12.9978719,26.6839773 C10.0730579,28.9652727 6.38807851,30.3242045 2.38419421,30.3242045 C1.69431818,30.3242045 1.01485537,30.2840455 0.345805785,30.2050227 C4.12710744,32.6184545 8.61911157,34.0266136 13.4456405,34.0266136 C29.1644008,34.0266136 37.7592149,21.0668864 37.7592149,9.82752273 C37.7592149,9.45831818 37.751405,9.09170455 37.7344835,8.72768182 C39.4045041,7.52809091 40.8532438,6.03054545 41.9986983,4.32572727 L42,4.32572727 Z"></path>
            </g>
        </g>
    </g>
</svg>